<?xml version="1.0" encoding="UTF-8"?>
<svg width="270px" height="90px" viewBox="0 0 270 90" version="1.1" xmlns="http://www.w3.org/2000/svg" xmlns:xlink="http://www.w3.org/1999/xlink">
    <title>BeeEV orange</title>
    <g id="BeeEV-orange" stroke="none" stroke-width="1" fill="none" fill-rule="evenodd">
        <g id="BeeEV_orange" transform="translate(2.000000, 2.000000)" fill-rule="nonzero">
            <g id="Group">
                <g transform="translate(142.797178, 0.000000)" fill="#059999" id="Path">
                    <g>
                        <polygon points="34.7222612 0.67699115 0.300625638 44.8318584 22.5469229 44.8318584 8.79329992 84.9247788 45.6199406 32.2699115 25.4028664 32.2699115"></polygon>
                        <path d="M42.3130586,0.827433628 L69.0687404,0.752212389 L69.0687404,5.64159292 C69.0687404,9.8539823 65.6115456,13.3141593 61.4027866,13.3141593 L33.8955407,13.3141593 L35.9999202,5.64159292 C36.8266407,2.85840708 39.3819586,0.827433628 42.3130586,0.827433628 Z"></path>
                        <path d="M29.6867818,28.1327434 L29.4613126,29.0353982 L51.2566713,29.0353982 L46.8224432,36.3318584 L61.4027866,36.3318584 C65.6115456,36.3318584 69.0687404,32.8716814 69.0687404,28.659292 L69.0687404,23.3938053 L35.9999202,23.3938053 C33.0688202,23.3938053 30.5135023,25.2743363 29.6867818,28.1327434 Z"></path>
                        <path d="M37.5782048,49.3451327 L31.0395972,58.9734513 L61.4027866,58.9734513 C65.6115456,58.9734513 69.0687404,55.5132743 69.0687404,51.300885 L69.0687404,46.4115044 L43.0646227,46.4115044 C40.8099304,46.4867257 38.7807074,47.539823 37.5782048,49.3451327 Z"></path>
                    </g>
                    <path d="M98.9809914,38.4380531 L104.768035,13.6150442 C106.571789,6.01769912 113.335866,0.601769912 121.152132,0.601769912 L121.152132,0.601769912 L108.826481,50.9247788 C107.699135,55.4380531 103.715845,58.5973451 99.0561479,58.5973451 L93.1939479,58.5973451 C88.5342505,58.5973451 84.5509608,55.4380531 83.4236147,50.9247788 L71.0979635,0.601769912 L72.4507789,0.601769912 C80.2670455,0.601769912 87.0311223,5.94247788 88.8348761,13.6150442 L94.6219197,38.4380531 C95.0728581,40.7699115 98.3797402,40.7699115 98.9809914,38.4380531 Z"></path>
                </g>
                <path d="M30.4383459,58.7477876 C36.9017971,58.7477876 41.6366509,57.0176991 44.6429073,53.6327434 C47.6491637,50.2477876 49.1522919,45.960177 49.1522919,40.920354 C49.1522919,38.1371681 48.7013534,35.7300885 47.8746329,33.7743363 C46.972756,31.8185841 45.5447842,30.1637168 43.5155612,28.7345133 C44.6429073,27.8318584 45.695097,26.5530973 46.6721304,24.8982301 C47.6491637,23.2433628 48.1001021,20.9867257 48.1001021,18.2787611 C48.1001021,15.2699115 47.4988509,12.4867257 46.2211919,9.92920354 C44.9435329,7.37168142 42.9143099,5.26548673 39.9832099,3.61061947 C37.1272663,1.95575221 33.3694459,1.12831858 28.7849049,1.12831858 L28.7849049,1.12831858 L2.70563075,1.12831858 C2.10437947,1.12831858 1.5782846,1.3539823 1.20250255,1.80530973 C0.751564096,2.25663717 0.526094867,2.78318584 0.526094867,3.38495575 L0.526094867,3.38495575 L0.526094867,56.4911504 C0.526094867,57.0929204 0.751564096,57.619469 1.20250255,58.0707965 C1.65344101,58.5221239 2.17953588,58.7477876 2.70563075,58.7477876 L2.70563075,58.7477876 L30.4383459,58.7477876 Z M26.981151,23.619469 L14.5803435,23.619469 L14.5803435,14.0663717 L26.981151,14.0663717 C28.5594356,14.0663717 29.7619382,14.5176991 30.5886587,15.3451327 C31.4153792,16.1725664 31.8663177,17.3761062 31.8663177,18.880531 C31.8663177,20.3849558 31.4153792,21.5884956 30.5886587,22.4159292 C29.7619382,23.1681416 28.5594356,23.619469 26.981151,23.619469 L26.981151,23.619469 Z M28.0333408,45.960177 L14.5803435,45.960177 L14.5803435,36.3318584 L28.0333408,36.3318584 C29.6867818,36.3318584 30.9644408,36.7831858 31.9414741,37.6858407 C32.9185074,38.5884956 33.4446023,39.7168142 33.4446023,41.1460177 C33.4446023,42.5752212 32.9185074,43.7035398 31.9414741,44.6061947 C30.9644408,45.5840708 29.6867818,45.960177 28.0333408,45.960177 L28.0333408,45.960177 Z M73.0520301,58.7477876 C77.6365711,58.7477876 81.469548,57.9955752 84.7012736,56.4159292 C87.9329992,54.8362832 90.3380043,53.0309735 91.9914454,51 C93.6448864,48.9690265 94.4716069,47.3893805 94.4716069,46.3362832 C94.4716069,45.8097345 94.3212941,45.3584071 93.945512,44.9823009 C93.6448864,44.6814159 93.1939479,44.4557522 92.667853,44.4557522 L92.667853,44.4557522 L82.0707993,44.4557522 C81.3943916,44.4557522 80.9434531,44.5309735 80.7179839,44.6814159 C80.4173583,44.8318584 80.0415762,45.1327434 79.4403249,45.659292 C78.7639173,46.2610619 77.8620403,46.7123894 76.885007,47.0884956 C75.9079737,47.3893805 74.6303147,47.6150442 73.1271865,47.6150442 C71.1731199,47.6150442 69.4445225,47.0884956 68.0165507,46.1106195 C66.5134225,45.1327434 65.8370148,43.4778761 65.8370148,41.1460177 L65.8370148,41.1460177 L92.9684787,41.1460177 C93.56973,41.1460177 94.0958248,40.920354 94.5467633,40.4690265 C94.9977017,40.0176991 95.223171,39.4911504 95.223171,38.8893805 L95.223171,38.8893805 L95.223171,36.4823009 C95.223171,32.7212389 94.4716069,29.1106195 92.9684787,25.6504425 C91.4653505,22.1902655 89.0603454,19.4070796 85.7534634,17.2256637 C82.4465813,15.0442478 78.3129788,13.9159292 73.2774994,13.9159292 C68.6929584,13.9159292 64.7096687,14.8938053 61.4027866,16.7743363 C58.0959046,18.6548673 55.5405867,21.2876106 53.8871457,24.6725664 C52.1585483,28.0575221 51.3318278,31.8938053 51.3318278,36.2566372 C51.3318278,43.2522124 53.210738,48.7433628 57.0437149,52.7300885 C60.8766918,56.7168142 65.9873276,58.7477876 73.0520301,58.7477876 Z M80.8682967,33.1725664 L66.7388917,33.1725664 C66.964361,31.3672566 67.6407686,29.8628319 68.9184276,28.659292 C70.1209302,27.4557522 71.7743712,26.7787611 73.8035942,26.7787611 C75.8328173,26.7787611 77.4862583,27.380531 78.6887609,28.659292 C79.9664198,29.9380531 80.6428275,31.4424779 80.8682967,33.1725664 L80.8682967,33.1725664 Z M119.122909,58.7477876 C123.70745,58.7477876 127.540427,57.9955752 130.772153,56.4159292 C134.003878,54.8362832 136.408883,53.0309735 138.062324,51 C139.715765,48.9690265 140.542486,47.3893805 140.542486,46.3362832 C140.542486,45.8097345 140.392173,45.3584071 140.016391,44.9823009 C139.715765,44.6814159 139.264827,44.4557522 138.738732,44.4557522 L138.738732,44.4557522 L128.141678,44.4557522 C127.465271,44.4557522 127.014332,44.5309735 126.788863,44.6814159 C126.488237,44.8318584 126.112455,45.1327434 125.511204,45.659292 C124.834796,46.2610619 123.932919,46.7123894 122.955886,47.0884956 C121.978853,47.3893805 120.701194,47.6150442 119.198066,47.6150442 C117.243999,47.6150442 115.515402,47.0884956 114.08743,46.1106195 C112.584302,45.1327434 111.907894,43.4778761 111.907894,41.1460177 L111.907894,41.1460177 L139.039358,41.1460177 C139.640609,41.1460177 140.166704,40.920354 140.617642,40.4690265 C141.068581,40.0176991 141.29405,39.4911504 141.29405,38.8893805 L141.29405,38.8893805 L141.29405,36.4823009 C141.29405,32.7212389 140.542486,29.1106195 139.039358,25.6504425 C137.53623,22.1902655 135.131224,19.4070796 131.824342,17.2256637 C128.51746,15.0442478 124.383858,13.9159292 119.348378,13.9159292 C114.763837,13.9159292 110.780548,14.8938053 107.473666,16.7743363 C104.166784,18.6548673 101.611466,21.2876106 99.9580248,24.6725664 C98.3045838,28.0575221 97.4027068,31.8938053 97.4027068,36.2566372 C97.4027068,43.2522124 99.2816171,48.7433628 103.114594,52.7300885 C106.722102,56.7168142 112.133363,58.7477876 119.122909,58.7477876 Z M127.014332,33.1725664 L112.884927,33.1725664 C113.110396,31.3672566 113.786804,29.8628319 115.064463,28.659292 C116.266966,27.4557522 117.920407,26.7787611 119.94963,26.7787611 C121.978853,26.7787611 123.632294,27.380531 124.834796,28.659292 C126.112455,29.9380531 126.788863,31.4424779 127.014332,33.1725664 L127.014332,33.1725664 Z" id="BeeEV_4_" fill="#E25608"></path>
            </g>
        </g>
    </g>
</svg>