<?xml version="1.0" encoding="UTF-8"?>
<svg width="199px" height="90px" viewBox="0 0 199 90" version="1.1" xmlns="http://www.w3.org/2000/svg" xmlns:xlink="http://www.w3.org/1999/xlink">
    <title>BlueBeeEV</title>
    <defs>
        <linearGradient x1="40.3794957%" y1="79.978478%" x2="58.4092992%" y2="5.49191529%" id="linearGradient-1">
            <stop stop-color="#067EFF" offset="0%"></stop>
            <stop stop-color="#59CF84" offset="50.37%"></stop>
            <stop stop-color="#00C1D4" offset="100%"></stop>
        </linearGradient>
    </defs>
    <g id="BlueBeeEV" stroke="none" stroke-width="1" fill="none" fill-rule="evenodd">
        <g id="Group-2" transform="translate(5.000000, 4.000000)">
            <g id="Combined-Shape-2_1_" fill="url(#linearGradient-1)">
                <path d="M35.7362637,0.769795918 L57.8241758,13.7559184 C59.043956,14.4587755 59.7692308,15.7640816 59.7692308,17.1697959 L59.8351648,42.9746939 C59.8351648,44.3804082 59.1098901,45.6857143 57.8901099,46.4220408 L36.1978022,59.3412245 C34.978022,60.077551 33.4615385,60.077551 32.2417582,59.3412245 L25.6153846,55.4587755 L31.2197802,46.2546939 L18.7912088,46.2881633 L31.1538462,22.5583673 L8.47252747,22.6253061 L8.53846154,43.1085714 C8.53846154,44.4808163 9.23076923,45.7191837 10.3516484,46.4555102 L10.4835165,46.5559184 L25.6153846,55.4587755 L9.56043956,81.8661224 L9.49450549,55.2244898 L0.164835165,55.2579592 L0.0659340659,22.6922449 L8.47252747,22.6587755 L8.47252747,17.3371429 C8.47252747,15.9314286 9.1978022,14.6261224 10.4175824,13.8897959 L32.4395604,0.769795918 C33.4615385,0.167346939 34.7142857,0.167346939 35.7362637,0.769795918 Z" id="Combined-Shape_1_"></path>
            </g>
            <g id="Group-3_1_" transform="translate(137.000000, 48.000000)" fill="#1DC5B5" fill-rule="nonzero">
                <g id="ic_flash_on_1_">
                    <path d="M21.3666667,33.7 C21.6666667,33.7 21.9333333,33.5666667 22.1666667,33.3333333 C22.4,33.0666667 22.5,32.7666667 22.5,32.4333333 L22.5,27.3333333 C22.5,26.9666667 22.4,26.6666667 22.1666667,26.4333333 C21.9333333,26.1666667 21.6666667,26.0666667 21.3666667,26.0666667 L8.03333333,26.0666667 L8.03333333,20.7 L20.1,20.7 C20.4,20.7 20.6666667,20.5666667 20.9,20.3333333 C21.1333333,20.0666667 21.2333333,19.7666667 21.2333333,19.4333333 L21.2333333,14.3333333 C21.2333333,13.9666667 21.1333333,13.6666667 20.9,13.4333333 C20.6666667,13.1666667 20.4,13.0666667 20.1,13.0666667 L8.03333333,13.0666667 L8.03333333,7.9 L21.0333333,7.9 C21.3333333,7.9 21.6,7.76666667 21.8333333,7.53333333 C22.0666667,7.3 22.1666667,6.96666667 22.1666667,6.63333333 L22.1666667,1.56666667 C22.1666667,1.2 22.0666667,0.9 21.8333333,0.666666667 C21.6,0.433333333 21.3333333,0.3 21.0333333,0.3 L1.36666667,0.3 C1.06666667,0.3 0.8,0.433333333 0.566666667,0.666666667 C0.333333333,0.9 0.233333333,1.23333333 0.233333333,1.56666667 L0.233333333,32.4333333 C0.233333333,32.8 0.333333333,33.1 0.566666667,33.3333333 C0.8,33.6 1.06666667,33.7 1.36666667,33.7 L21.3666667,33.7 L21.3666667,33.7 Z" id="Path_2_"></path>
                    <path d="M39.9666667,33.7 C41.0333333,33.7 41.7666667,33.0666667 42.1666667,31.8 L50.6333333,1.93333333 C50.7,1.63333333 50.7666667,1.43333333 50.7666667,1.3 C50.7666667,1 50.6666667,0.766666667 50.5,0.566666667 C50.3333333,0.366666667 50.1,0.266666667 49.8666667,0.266666667 L44.6333333,0.266666667 C44.1666667,0.266666667 43.8,0.4 43.5333333,0.633333333 C43.2666667,0.866666667 43.1,1.16666667 43,1.46666667 L37.2333333,22.5 L31.4666667,1.46666667 C31.4,1.13333333 31.2,0.866666667 30.9333333,0.633333333 C30.6666667,0.4 30.3,0.266666667 29.8333333,0.266666667 L24.6,0.266666667 C24.3666667,0.266666667 24.1333333,0.366666667 23.9666667,0.566666667 C23.8,0.766666667 23.7,1.03333333 23.7,1.3 C23.7,1.43333333 23.7333333,1.63333333 23.8333333,1.93333333 L32.3,31.8 C32.7,33.0666667 33.4333333,33.7 34.5,33.7 L39.9666667,33.7 L39.9666667,33.7 Z" id="Path_1_"></path>
                </g>
            </g>
            <path d="M72.2617477,82 C75.9678483,82 78.6723001,81.0333333 80.4418796,79.0666667 C82.1780709,77.1 83.0461665,74.6666667 83.0461665,71.7666667 C83.0461665,70.1666667 82.8124485,68.8 82.3116241,67.7 C81.8107997,66.5666667 80.9760923,65.6 79.8075021,64.8 C80.4752679,64.3 81.0428689,63.5666667 81.6104699,62.6 C82.1446826,61.6333333 82.411789,60.3666667 82.411789,58.8 C82.411789,57.0666667 82.0445177,55.4666667 81.3099753,54 C80.5754328,52.5333333 79.3734542,51.3333333 77.7374279,50.4 C76.1014015,49.4666667 73.9311624,49 71.2934872,49 L71.2934872,49 L56.2687552,49 C55.9348722,49 55.6343776,49.1333333 55.3672712,49.3666667 C55.1001649,49.6 55,49.9333333 55,50.2666667 L55,50.2666667 L55,80.7333333 C55,81.0666667 55.1335532,81.3666667 55.3672712,81.6333333 C55.6009893,81.9 55.9014839,82 56.2687552,82 L56.2687552,82 L72.2617477,82 L72.2617477,82 Z M70.2918384,61.8 L63.1467436,61.8 L63.1467436,56.3 L70.2918384,56.3 C71.2267106,56.3 71.9278648,56.5333333 72.3953009,57.0333333 C72.862737,57.5333333 73.0964551,58.2 73.0964551,59.0666667 C73.0964551,59.9333333 72.862737,60.6 72.3953009,61.1 C71.9278648,61.6 71.2267106,61.8 70.2918384,61.8 L70.2918384,61.8 Z M70.8928277,74.6666667 L63.1467436,74.6666667 L63.1467436,69.1666667 L70.8928277,69.1666667 C71.8276999,69.1666667 72.5956307,69.4333333 73.1632317,69.9333333 C73.7308326,70.4333333 73.997939,71.1 73.997939,71.9333333 C73.997939,72.7333333 73.7308326,73.4 73.1632317,73.9333333 C72.5956307,74.4 71.8276999,74.6666667 70.8928277,74.6666667 L70.8928277,74.6666667 Z M96.8021434,82 C99.4398186,82 101.676834,81.5333333 103.51319,80.6333333 C105.349547,79.7333333 106.751855,78.7 107.686727,77.5333333 C108.621599,76.3666667 109.089035,75.4666667 109.089035,74.8333333 C109.089035,74.5 108.988871,74.2666667 108.821929,74.0666667 C108.621599,73.8666667 108.387881,73.7666667 108.087387,73.7666667 L108.087387,73.7666667 L101.977329,73.7666667 C101.610058,73.7666667 101.342951,73.8 101.17601,73.9 C101.009068,73.9666667 100.77535,74.1666667 100.441467,74.4333333 C100.040808,74.7666667 99.5399835,75.0666667 98.9723825,75.2333333 C98.4047815,75.4 97.7036274,75.5333333 96.8021434,75.5333333 C95.6669415,75.5333333 94.698681,75.2333333 93.8305853,74.6666667 C92.995878,74.1 92.5618302,73.1333333 92.5618302,71.8 L92.5618302,71.8 L108.187552,71.8 C108.521434,71.8 108.821929,71.6666667 109.089035,71.4333333 C109.356142,71.2 109.456307,70.8666667 109.456307,70.5333333 L109.456307,70.5333333 L109.456307,69.2 C109.456307,67.0333333 109.022259,64.9666667 108.154163,63 C107.286068,61.0333333 105.883759,59.4 104.014015,58.1333333 C102.110882,56.8666667 99.706925,56.2666667 96.8021434,56.2666667 C94.13108,56.2666667 91.860676,56.8 89.9575433,57.9 C88.0544106,59 86.6187139,60.5 85.6170651,62.4333333 C84.6154163,64.3666667 84.1479802,66.6 84.1479802,69.1 C84.1479802,73.1333333 85.2497939,76.2666667 87.4534213,78.5333333 C89.6570486,80.8 92.7621599,82 96.8021434,82 Z M101.309563,67.3 L93.1628195,67.3 C93.2963726,66.2666667 93.6970322,65.4 94.3981863,64.7 C95.0993405,64 96.0342127,63.6333333 97.2361913,63.6333333 C98.4047815,63.6333333 99.3396538,64 100.074196,64.7 C100.77535,65.4 101.209398,66.3 101.309563,67.3 L101.309563,67.3 Z M123.345837,82 C125.983512,82 128.220528,81.5333333 130.056884,80.6333333 C131.89324,79.7333333 133.295548,78.7 134.23042,77.5333333 C135.165293,76.3666667 135.632729,75.4666667 135.632729,74.8333333 C135.632729,74.5 135.532564,74.2666667 135.365622,74.0666667 C135.165293,73.8666667 134.931575,73.7666667 134.63108,73.7666667 L134.63108,73.7666667 L128.521022,73.7666667 C128.153751,73.7666667 127.886645,73.8 127.719703,73.9 C127.552762,73.9666667 127.319044,74.1666667 126.985161,74.4333333 C126.584501,74.7666667 126.083677,75.0666667 125.516076,75.2333333 C124.948475,75.4 124.247321,75.5333333 123.345837,75.5333333 C122.210635,75.5333333 121.242374,75.2333333 120.374279,74.6666667 C119.539571,74.1 119.105523,73.1333333 119.105523,71.8 L119.105523,71.8 L134.731245,71.8 C135.065128,71.8 135.365622,71.6666667 135.632729,71.4333333 C135.866447,71.1666667 136,70.8666667 136,70.5333333 L136,70.5333333 L136,69.2 C136,67.0333333 135.565952,64.9666667 134.697857,63 C133.829761,61.0333333 132.427453,59.4 130.557708,58.1333333 C128.654575,56.8666667 126.250618,56.2666667 123.345837,56.2666667 C120.674773,56.2666667 118.404369,56.8 116.501237,57.9 C114.598104,59 113.162407,60.5 112.160758,62.4333333 C111.15911,64.3666667 110.691674,66.6 110.691674,69.1 C110.691674,73.1333333 111.793487,76.2666667 113.997115,78.5333333 C116.200742,80.8 119.305853,82 123.345837,82 Z M127.853256,67.3 L119.706513,67.3 C119.840066,66.2666667 120.240725,65.4 120.94188,64.7 C121.643034,64 122.577906,63.6333333 123.779885,63.6333333 C124.948475,63.6333333 125.883347,64 126.61789,64.7 C127.352432,65.4 127.753092,66.3 127.853256,67.3 L127.853256,67.3 Z" id="BeeEV_1_" fill="#2D241D" fill-rule="nonzero"></path>
        </g>
    </g>
</svg>